<svg width="25" height="24" viewBox="0 0 25 24" fill="none" xmlns="http://www.w3.org/2000/svg">
<path fill-rule="evenodd" clip-rule="evenodd" d="M8 21C6.50883 21 5.3 19.7912 5.3 18.3V15.15H4.175C3.80221 15.15 3.5 14.8478 3.5 14.475C3.5 14.1022 3.80221 13.8 4.175 13.8H5.3V11.55H4.175C3.80221 11.55 3.5 11.2478 3.5 10.875C3.5 10.5022 3.80221 10.2 4.175 10.2H5.3V7.95H4.175C3.80221 7.95 3.5 7.64779 3.5 7.275C3.5 6.90221 3.80221 6.6 4.175 6.6H5.3V5.7C5.3 4.20883 6.50883 3 8 3L8 21ZM8.9 3L8.9 21H18.8C20.2912 21 21.5 19.7912 21.5 18.3V5.7C21.5 4.20883 20.2912 3 18.8 3L8.9 3ZM18.5 8C18.5 7.62721 18.1978 7.325 17.825 7.325L12.675 7.325C12.3022 7.325 12 7.62721 12 8C12 8.37279 12.3022 8.675 12.675 8.675L17.825 8.675C18.1978 8.675 18.5 8.37279 18.5 8Z" fill="currentColor"/>
</svg>
