<svg width="24" height="24" viewBox="0 0 24 24" fill="none" xmlns="http://www.w3.org/2000/svg">
<path fill-rule="evenodd" clip-rule="evenodd" d="M4 4.5C4 3.11929 5.19391 2 6.66667 2H12.6428V6.44444C12.6428 7.42742 13.5842 8.05556 14.5142 8.05556H20V8.02232L20 8.03553V19.5C20 20.8807 18.8061 22 17.3333 22H6.66667C5.19391 22 4 20.8807 4 19.5V4.5ZM13.6428 6.44444V2.00114C14.3208 2.02037 14.9667 2.28126 15.4477 2.73223L19.219 6.26777C19.4625 6.49612 19.6541 6.76411 19.7866 7.05556H14.5142C13.9295 7.05556 13.6428 6.68877 13.6428 6.44444ZM8.5 10.1389C8.08579 10.1389 7.75 10.4747 7.75 10.8889C7.75 11.3031 8.08579 11.6389 8.5 11.6389H15.75C16.1642 11.6389 16.5 11.3031 16.5 10.8889C16.5 10.4747 16.1642 10.1389 15.75 10.1389H8.5ZM8.5 13.4722C8.08579 13.4722 7.75 13.808 7.75 14.2222C7.75 14.6365 8.08579 14.9722 8.5 14.9722H15.75C16.1642 14.9722 16.5 14.6365 16.5 14.2222C16.5 13.808 16.1642 13.4722 15.75 13.4722H8.5ZM8.5 16.8056C8.08579 16.8056 7.75 17.1414 7.75 17.5556C7.75 17.9698 8.08579 18.3056 8.5 18.3056H10.75C11.1642 18.3056 11.5 17.9698 11.5 17.5556C11.5 17.1414 11.1642 16.8056 10.75 16.8056H8.5Z" fill="#B0B8C1"/>
</svg>
