<svg width="24" height="24" viewBox="0 0 24 24" fill="none" xmlns="http://www.w3.org/2000/svg">
    <path d="M19 3C20.1046 3 21 3.88316 21 4.9726L21 9.0274C21 10.1168 20.1046 11 19 11H15C13.8954 11 13 10.1168 13 9.0274L13 4.9726C13 3.88316 13.8954 3 15 3L19 3Z" fill="currentColor"/>
    <path d="M5 3C3.89543 3 3 3.88316 3 4.9726L3.00001 9.0274C3.00001 10.1168 3.89544 11 5.00001 11H9.00001C10.1046 11 11 10.1168 11 9.0274L11 4.9726C11 3.88316 10.1046 3 9 3L5 3Z" fill="currentColor"/>
    <path d="M19 13C20.1046 13 21 13.8832 21 14.9726L21 19.0274C21 20.1168 20.1046 21 19 21H15C13.8954 21 13 20.1168 13 19.0274L13 14.9726C13 13.8832 13.8954 13 15 13H19Z" fill="currentColor"/>
    <path d="M5.00001 13C3.89544 13 3.00001 13.8832 3.00001 14.9726L3.00001 19.0274C3.00001 20.1168 3.89544 21 5.00001 21H9C10.1046 21 11 20.1168 11 19.0274L11 14.9726C11 13.8832 10.1046 13 9 13H5.00001Z" fill="currentColor"/>
</svg>
