<svg width="16" height="16" viewBox="0 0 16 16" fill="none" xmlns="http://www.w3.org/2000/svg">
<path fill-rule="evenodd" clip-rule="evenodd" d="M8 13.9995C11.3137 13.9995 14 11.3133 14 7.99976C14 4.68618 11.3137 2 8 2C4.68629 2 2 4.68618 2 7.99976C2 11.3133 4.68629 13.9995 8 13.9995ZM8.33327 5.33344C8.33327 4.96525 8.03479 4.66677 7.6666 4.66677C7.29841 4.66677 6.99994 4.96525 6.99994 5.33344V8.56132C6.99994 8.85812 7.19614 9.11917 7.48122 9.2017L10.1479 9.97365C10.5016 10.076 10.8713 9.87232 10.9736 9.51865C11.076 9.16498 10.8723 8.79528 10.5186 8.6929L8.33327 8.06027V5.33344Z" fill="#B0B8C1"/>
</svg>
