<svg width="32" height="32" viewBox="0 0 32 32" fill="none" xmlns="http://www.w3.org/2000/svg">
<path d="M20.5585 2.56478C20.2302 2.20757 19.7766 2 19.3 2H8.38466C6.51545 2 5.00014 3.56699 5.00013 5.49998L5 26.4999C4.99999 28.4329 6.51529 29.9999 8.38452 29.9999L23.615 30C25.4842 30 26.9995 28.4331 26.9995 26.5001L27 10.1998C27 9.7523 26.8349 9.32215 26.5346 9C25.9793 8.40429 23.1769 5.17117 22.5866 4.625C21.8335 3.92812 21.0519 3.10159 20.5585 2.56478Z" fill="#B4CDEF"/>
<path d="M23.625 5.75C22.6236 4.75446 21.5845 3.5737 20.9285 2.80683C20.4919 2.29653 19.8888 2 19.2552 2H18V10.125C18 11.375 19.125 12 19.6875 12H27L27 10.4955C27 9.85624 26.7805 9.24174 26.3812 8.78153C25.6428 7.93051 24.4098 6.53024 23.625 5.75Z" fill="#6F7B8C"/>
<!--<path d="M9.63125 25V19.3438H11.7562C13.0531 19.3438 13.7484 20.1328 13.7484 21.2188C13.7484 22.3047 13.0453 23.0859 11.7406 23.0859H10.6469V25H9.63125ZM10.6469 22.25H11.6C12.3656 22.25 12.7094 21.8203 12.7094 21.2188C12.7094 20.6094 12.3656 20.1953 11.6 20.1953H10.6469V22.25ZM16.3906 25H14.4688V19.3438H16.4219C18.1094 19.3438 19.1328 20.4062 19.1328 22.1641C19.1328 23.9297 18.1094 25 16.3906 25ZM15.4844 24.1172H16.3359C17.5156 24.1172 18.1172 23.4688 18.1172 22.1641C18.1172 20.8672 17.5156 20.2266 16.3672 20.2266H15.4844V24.1172ZM19.9312 25V19.3438H23.5562V20.1953H20.9469V21.7422H23.3062V22.5938H20.9469V25H19.9312Z" fill="white"/>-->
</svg>
