<svg width="24" height="24" viewBox="0 0 24 24" fill="none" xmlns="http://www.w3.org/2000/svg">
<path fill-rule="evenodd" clip-rule="evenodd" d="M9.95119 2.60878C10.4737 0.463742 13.5263 0.463742 14.0488 2.60878L14.0474 2.61015C14.1255 2.93256 14.2787 3.23197 14.4944 3.48399C14.7102 3.73601 14.9823 3.93352 15.2889 4.06044C15.5954 4.18736 15.9275 4.24009 16.2583 4.21435C16.589 4.1886 16.909 4.08511 17.1922 3.9123C19.0787 2.76278 21.2375 4.92156 20.088 6.80809C19.9152 7.09126 19.8117 7.41125 19.7859 7.74198C19.7602 8.07272 19.8129 8.40487 19.9399 8.71137C20.0668 9.01787 20.2643 9.29006 20.5163 9.50578C20.7683 9.72151 21.0678 9.87466 21.3902 9.95276C23.5366 10.4725 23.5366 13.5264 21.3902 14.0476C21.0679 14.126 20.7687 14.2793 20.5169 14.495C20.265 14.7108 20.0676 14.9829 19.9407 15.2893C19.8139 15.5957 19.7611 15.9278 19.7867 16.2584C19.8122 16.5891 19.9155 16.909 20.088 17.1923C21.2375 19.0788 19.0787 21.2376 17.1922 20.088C16.9089 19.9155 16.589 19.8123 16.2583 19.7867C15.9277 19.7611 15.5956 19.8139 15.2892 19.9408C14.9828 20.0677 14.7107 20.265 14.4949 20.5169C14.2791 20.7687 14.1258 21.0679 14.0474 21.3902C13.5277 23.5366 10.4737 23.5366 9.95256 21.3902C9.87445 21.0678 9.7213 20.7684 9.50557 20.5164C9.28985 20.2643 9.01765 20.0668 8.71114 19.9399C8.40464 19.813 8.07249 19.7603 7.74175 19.786C7.411 19.8117 7.09101 19.9152 6.80784 20.088C4.92128 21.2376 2.76246 19.0788 3.912 17.1923C4.08481 16.9091 4.18831 16.5891 4.21405 16.2584C4.2398 15.9276 4.18706 15.5955 4.06014 15.289C3.93323 14.9825 3.73571 14.7103 3.48369 14.4946C3.23166 14.2788 2.93225 14.1257 2.60983 14.0476C0.46339 13.5278 0.46339 10.4739 2.60983 9.95276C3.99587 9.61588 4.65452 8.02636 3.912 6.80809C2.76246 4.92156 4.92128 2.76278 6.80784 3.9123C7.09107 4.08482 7.41103 4.18804 7.74168 4.21355C8.07234 4.23906 8.40434 4.18614 8.71068 4.05911C9.01702 3.93207 9.28904 3.7345 9.5046 3.48248C9.72016 3.23046 9.87318 2.9311 9.95119 2.60878ZM12 15.6667C14.025 15.6667 15.6667 14.025 15.6667 12C15.6667 9.97496 14.025 8.33333 12 8.33333C9.97496 8.33333 8.33333 9.97496 8.33333 12C8.33333 14.025 9.97496 15.6667 12 15.6667Z" fill="#B0B8C1"/>
</svg>
