<svg width="24" height="24" viewBox="0 0 24 24" fill="none" xmlns="http://www.w3.org/2000/svg">
<path fill-rule="evenodd" clip-rule="evenodd" d="M4.98572 14.926C4.79695 14.7339 4.79431 14.4267 4.97976 14.2314L15.6655 2.97493C16.9426 1.67503 19.0131 1.67502 20.2902 2.97492C21.5673 4.27482 21.5673 6.38238 20.2902 7.68228L9.24393 18.5465C9.04698 18.7402 8.73026 18.7375 8.53666 18.5404L4.98572 14.926ZM4.30542 16.3982C4.03815 16.1261 3.57696 16.2414 3.46914 16.6072L2.26254 20.7011C2.14996 21.0831 2.50731 21.437 2.88817 21.3207L6.91018 20.0925C7.26913 19.9829 7.38385 19.5316 7.12082 19.2639L4.30542 16.3982Z" fill="currentColor"/>
<path fill-rule="evenodd" clip-rule="evenodd" d="M10.8722 21.2347C10.8722 20.812 11.2089 20.4694 11.6241 20.4694H21.2481C21.6634 20.4694 22 20.812 22 21.2347C22 21.6574 21.6634 22 21.2481 22H11.6241C11.2089 22 10.8722 21.6574 10.8722 21.2347Z" fill="currentColor"/>
</svg>
