<svg width="24" height="24" viewBox="0 0 24 24" fill="none" xmlns="http://www.w3.org/2000/svg">
<path fill-rule="evenodd" clip-rule="evenodd" d="M20.1621 15.688C20.0851 15.8761 20.0604 16.0819 20.0986 16.2816L21.2766 19.5622C21.4244 20.3356 20.6617 20.9685 19.9288 20.6807L17.3407 19.5622C17.0611 19.4524 16.7479 19.4755 16.4819 19.6152C15.1953 20.2904 13.4369 21 11.9991 21C7.02906 21 3 16.9706 3 12C3 7.02944 7.02906 3 11.9991 3C16.9692 3 20.9983 7.02944 20.9983 12C20.9983 13.186 20.606 14.6036 20.1621 15.688ZM8 13C8.55228 13 9 12.5523 9 12C9 11.4477 8.55228 11 8 11C7.44772 11 7 11.4477 7 12C7 12.5523 7.44772 13 8 13ZM13 12C13 12.5523 12.5523 13 12 13C11.4477 13 11 12.5523 11 12C11 11.4477 11.4477 11 12 11C12.5523 11 13 11.4477 13 12ZM16 13C16.5523 13 17 12.5523 17 12C17 11.4477 16.5523 11 16 11C15.4477 11 15 11.4477 15 12C15 12.5523 15.4477 13 16 13Z" fill="currentColor"/>
</svg>
