<svg width="16" height="16" viewBox="0 0 16 16" fill="none" xmlns="http://www.w3.org/2000/svg">
<path fill-rule="evenodd" clip-rule="evenodd" d="M14.133 10.8685C14.0741 11.0148 14.0552 11.1748 14.0844 11.3301L14.9858 13.8817C15.0989 14.4832 14.5153 14.9755 13.9545 14.7516L11.974 13.8817C11.76 13.7963 11.5204 13.8143 11.3168 13.9229C10.3323 14.4481 8.98662 15 7.88644 15C4.08316 15 1 11.866 1 8C1 4.13401 4.08316 1 7.88644 1C11.6897 1 14.7729 4.13401 14.7729 8C14.7729 8.92244 14.4727 10.025 14.133 10.8685ZM4.82616 8.77778C5.24879 8.77778 5.59139 8.42956 5.59139 8C5.59139 7.57045 5.24879 7.22222 4.82616 7.22222C4.40353 7.22222 4.06093 7.57045 4.06093 8C4.06093 8.42956 4.40353 8.77778 4.82616 8.77778ZM8.65232 8C8.65232 8.42956 8.30972 8.77778 7.88709 8.77778C7.46446 8.77778 7.12186 8.42956 7.12186 8C7.12186 7.57045 7.46446 7.22222 7.88709 7.22222C8.30972 7.22222 8.65232 7.57045 8.65232 8ZM10.948 8.77778C11.3706 8.77778 11.7132 8.42956 11.7132 8C11.7132 7.57045 11.3706 7.22222 10.948 7.22222C10.5254 7.22222 10.1828 7.57045 10.1828 8C10.1828 8.42956 10.5254 8.77778 10.948 8.77778Z" fill="#388AFD"/>
</svg>
