<svg width="24" height="24" viewBox="0 0 24 24" fill="none" xmlns="http://www.w3.org/2000/svg">
<path fill-rule="evenodd" clip-rule="evenodd" d="M7.75 2C7.33579 2 7 2.33579 7 2.75V4C4.79086 4 3 5.79086 3 8V9H21V8C21 5.79086 19.2091 4 17 4V2.75C17 2.33579 16.6642 2 16.25 2C15.8358 2 15.5 2.33579 15.5 2.75V4H8.5V2.75C8.5 2.33579 8.16421 2 7.75 2ZM21 10H3V17C3 19.2091 4.79086 21 7 21H17C19.2091 21 21 19.2091 21 17V10ZM16 14.75C16 14.3358 15.6642 14 15.25 14H8.75C8.33579 14 8 14.3358 8 14.75C8 15.1642 8.33579 15.5 8.75 15.5H15.25C15.6642 15.5 16 15.1642 16 14.75Z" fill="currentColor"/>
</svg>
