<svg width="24" height="24" viewBox="0 0 24 24" fill="none" xmlns="http://www.w3.org/2000/svg">
<path d="M2.63454 19.5263H21.3667C21.8872 19.5263 22.1823 18.6852 21.8758 18.2033C21.1661 17.0873 20.4768 15.4423 20.4768 13.4586L20.5073 10.7453C20.5073 5.36311 16.6984 1 12 1C7.36976 1 3.6162 5.29977 3.6162 10.6038L3.58569 13.4586C3.58569 15.4288 2.8717 17.0648 2.13197 18.1803C1.81318 18.6611 2.10753 19.5263 2.63454 19.5263Z" fill="#B0B8C1"/>
<path d="M8.38889 20.6842C8.38889 22.2281 10.4416 23 11.7222 23C13.0028 23 15.0556 22.2281 15.0556 20.6842H8.38889Z" fill="#B0B8C1"/>
</svg>
