<svg width="16" height="16" viewBox="0 0 16 16" fill="none" xmlns="http://www.w3.org/2000/svg">
<path fill-rule="evenodd" clip-rule="evenodd" d="M5 14C4.02798 14 3.44 13.1941 3.44 12.2V10.1C3.19699 10.1 3 9.89853 3 9.65C3 9.40147 3.19699 9.2 3.44 9.2L3.44 7.7C3.19699 7.7 3 7.49853 3 7.25C3 7.00147 3.19699 6.8 3.44 6.8L3.44 5.3C3.19699 5.3 3 5.09853 3 4.85C3 4.60147 3.19699 4.4 3.44 4.4L3.44 3.8C3.44 2.80589 4.02798 2 5 2L5 14ZM6 2L6 14H12.24C13.212 14 14 13.1941 14 12.2V3.8C14 2.80589 13.212 2 12.24 2L6 2Z" fill="#B0B8C1"/>
</svg>
