<svg xmlns="http://www.w3.org/2000/svg" width="1200" height="630" viewBox="0 0 1200 630">
  <defs>
    <g id="spark">
      <path d="M14 0c0 8.2 5.8 14 14 14-8.2 0-14 5.8-14 14 0-8.2-5.8-14-14-14 8.2 0 14-5.8 14-14Z" fill="#4f89ed"/>
    </g>
    <g id="ring">
      <circle cx="14" cy="14" r="9.5" fill="none" stroke="#4f89ed" stroke-width="3"/>
    </g>
    <g id="diamond">
      <rect x="5" y="5" width="18" height="18" rx="4" fill="#4f89ed" transform="rotate(45 14 14)"/>
    </g>
  </defs>

  <rect width="1200" height="630" fill="#ffffff"/>

  <g opacity="0.15">
    <use href="#spark" x="42" y="66"/>
    <use href="#ring" x="42" y="194"/>
    <use href="#diamond" x="42" y="322"/>
    <use href="#spark" x="42" y="450"/>
    <use href="#ring" x="42" y="548"/>

    <use href="#ring" x="1130" y="66"/>
    <use href="#diamond" x="1130" y="194"/>
    <use href="#spark" x="1130" y="322"/>
    <use href="#ring" x="1130" y="450"/>
    <use href="#diamond" x="1130" y="548"/>
  </g>

  <g opacity="0.1">
    <use href="#diamond" x="116" y="16"/>
    <use href="#spark" x="116" y="144"/>
    <use href="#ring" x="116" y="272"/>
    <use href="#diamond" x="116" y="400"/>
    <use href="#spark" x="116" y="528"/>

    <use href="#spark" x="1056" y="16"/>
    <use href="#ring" x="1056" y="144"/>
    <use href="#diamond" x="1056" y="272"/>
    <use href="#spark" x="1056" y="400"/>
    <use href="#ring" x="1056" y="528"/>
  </g>

  <g opacity="0.065">
    <use href="#ring" x="190" y="66"/>
    <use href="#diamond" x="190" y="194"/>
    <use href="#spark" x="190" y="322"/>
    <use href="#ring" x="190" y="450"/>
    <use href="#diamond" x="190" y="548"/>

    <use href="#diamond" x="982" y="66"/>
    <use href="#spark" x="982" y="194"/>
    <use href="#ring" x="982" y="322"/>
    <use href="#diamond" x="982" y="450"/>
    <use href="#spark" x="982" y="548"/>
  </g>

  <image href="../login/img_logo.png" x="325.5" y="259.5" width="549" height="111"/>
</svg>
